<?xml version="1.0" standalone="no"?>
<!DOCTYPE svg PUBLIC "-//W3C//DTD SVG 20010904//EN"
 "http://www.w3.org/TR/2001/REC-SVG-20010904/DTD/svg10.dtd">
<svg version="1.0" xmlns="http://www.w3.org/2000/svg"
 width="200.000000pt" height="200.000000pt" viewBox="0 0 200.000000 200.000000"
 preserveAspectRatio="xMidYMid meet">

<g transform="translate(0.000000,200.000000) scale(0.100000,-0.100000)"
fill="#000000" stroke="none">
<path d="M376 1422 c-131 -75 -239 -141 -238 -147 1 -5 108 -72 239 -148 l238
-137 3 60 3 60 409 0 410 0 0 165 0 165 -410 0 -409 0 -3 60 -3 60 -239 -138z"/>
<path d="M1380 966 l0 -56 -410 0 -410 0 0 -165 0 -165 410 0 410 0 0 -60 c0
-33 2 -60 4 -60 7 0 461 263 474 275 10 9 -35 39 -215 143 -125 72 -236 134
-245 137 -16 6 -18 0 -18 -49z"/>
</g>
</svg>
